<svg width="162" height="84" viewBox="0 0 162 84" fill="none" xmlns="http://www.w3.org/2000/svg">
<g clip-path="url(#clip0_28_5)">
<path d="M159.183 56.0818V14.8546L151.435 7.09897H155.661V0H58.813L39.5843 25.9112L0 32.4955V62.5242L8.39935 70.9897H19.3696C20.3821 75.9279 23.603 80.1163 28.0947 82.3362C32.5878 84.5546 37.8455 84.5546 42.3386 82.3362C46.8303 80.1163 50.0527 75.9279 51.0637 70.9897H114.455C115.468 75.9279 118.688 80.1163 123.182 82.3362C127.675 84.5546 132.932 84.5546 137.426 82.3362C141.917 80.1163 145.14 75.9279 146.152 70.9897H162V63.8907H151.435L159.183 56.0818ZM35.2174 76.6688C32.7889 76.6688 30.4601 75.6972 28.7433 73.9653C27.0264 72.2349 26.0623 69.8878 26.0623 67.4402C26.0623 64.9925 27.0264 62.6454 28.7433 60.9151C30.4601 59.1847 32.7889 58.2115 35.2174 58.2115C37.6459 58.2115 39.9747 59.1832 41.6915 60.9151C43.4084 62.6454 44.3724 64.9925 44.3724 67.4402C44.368 69.8864 43.4025 72.2305 41.6856 73.9609C39.9688 75.6913 37.643 76.6644 35.2159 76.6688H35.2174ZM35.2174 51.1126C31.5269 51.1081 27.9465 52.3712 25.066 54.6946C22.184 57.018 20.1752 60.2628 19.3696 63.8907H11.3224L7.04348 59.6313V38.4941L43.5287 32.3713L62.3348 7.09897H95.087V16.3276H102.13V7.09897H141.521L152.086 17.7474V25.5563H79.5913V32.6552H95.087V47.2081L84.0463 63.8907H51.0652C50.2596 60.2614 48.2508 57.018 45.3688 54.6946C42.4883 52.3712 38.9064 51.1081 35.2174 51.1126ZM114.457 63.8907H92.5161L102.13 49.3556V32.6552H152.139V53.189L144.92 60.4655C142.994 56.3229 139.432 53.1846 135.101 51.8165C130.77 50.4485 126.068 50.978 122.143 53.2733C118.217 55.5686 115.428 59.4213 114.457 63.8907ZM130.304 76.6688C127.876 76.6688 125.547 75.6972 123.83 73.9668C122.113 72.2364 121.149 69.8893 121.149 67.4417C121.149 64.994 122.113 62.6469 123.83 60.9165C125.547 59.1862 127.876 58.213 130.304 58.213C132.733 58.213 135.062 59.1847 136.778 60.9165C138.495 62.6469 139.459 64.994 139.459 67.4417C139.455 69.8878 138.489 72.232 136.773 73.9624C135.056 75.6927 132.73 76.6659 130.303 76.6703L130.304 76.6688Z" fill="white"/>
<path d="M58.0705 31.6067L63.0509 26.5871L69.3885 32.9747L64.4082 37.9942L58.0705 31.6067Z" fill="white"/>
</g>
<defs>
<clipPath id="clip0_28_5">
<rect width="162" height="84" fill="white"/>
</clipPath>
</defs>
</svg>
