<svg width="43" height="107" viewBox="0 0 43 107" fill="none" xmlns="http://www.w3.org/2000/svg">
<g clip-path="url(#clip0_28_10)">
<path d="M21.5014 0C26.8223 0 30.0079 5.22156 30.0079 9.98302C30.0079 14.7445 26.8095 19.966 21.5014 19.966C16.1932 19.966 12.9948 14.7311 12.9948 9.98302C12.9948 5.23493 16.1796 0 21.5014 0ZM21.5014 3.41951C18.1828 3.41951 16.4893 7.1948 16.4893 9.98302C16.4893 12.7712 18.1955 16.5465 21.5014 16.5465C24.8073 16.5465 26.5135 12.798 26.5135 9.98302C26.5135 7.16805 24.8073 3.41951 21.5014 3.41951Z" fill="white"/>
<path d="M17.873 25.3329C17.2955 25.925 16.6095 26.4511 15.8707 26.9245C14.272 27.8973 12.39 28.608 10.9388 29.003C4.85177 32.6731 4.38171 45.4175 4.0319 55.2035C3.95083 57.1232 3.88433 58.9396 3.77684 60.5829H5.65797L9.51497 39.1438L12.9684 39.4461L13.0622 103.58H17.2007L18.1281 67.0144H24.8737L25.8011 103.58H29.9396L30.0334 39.4461L33.4869 39.1438L37.3439 60.5829H39.225C39.1175 58.9387 39.0501 57.1232 38.9827 55.2035C38.6201 45.4175 38.1501 32.6722 32.0621 29.003C30.6246 28.608 28.7298 27.8982 27.1438 26.9245C26.3914 26.4511 25.7064 25.925 25.1288 25.3329C22.4551 26.6089 20.6141 26.6356 17.8721 25.3329H17.873ZM16.9056 20.0855C20.8965 23.7422 21.7428 24.0837 26.1099 20.0855C27.8298 23.7422 28.8246 24.6499 33.178 25.7681L33.608 25.9393C43.5785 31.5558 41.9661 53.0216 43.0009 63.9908H34.4279L33.4878 58.7559L33.4067 107.001H22.4014L21.5014 71.1196L20.6013 107.001H9.59604L9.52863 58.7559L8.57486 63.9908H0C1.03485 53.2445 -0.604877 31.5692 9.3929 25.9393L9.82287 25.7681C14.0962 24.6767 15.2112 23.6896 16.9047 20.0855H16.9056Z" fill="white"/>
</g>
<defs>
<clipPath id="clip0_28_10">
<rect width="43" height="107" fill="white"/>
</clipPath>
</defs>
</svg>
