<svg width="109" height="121" viewBox="0 0 109 121" fill="none" xmlns="http://www.w3.org/2000/svg">
<g clip-path="url(#clip0_28_14)">
<path d="M92.6416 119.885L100.713 103.752C101.026 103.127 100.992 102.385 100.625 101.79C100.258 101.195 99.6079 100.834 98.9094 100.834H54.5156V92.7674H88.8199C89.4926 92.7674 90.1211 92.4329 90.4967 91.8747C90.8712 91.3165 90.9433 90.6088 90.6893 89.9861L54.366 1.25514C54.1282 0.673282 53.6331 0.234467 53.0261 0.0699115C52.4191 -0.0946441 51.7702 0.0333436 51.2708 0.415156C50.7715 0.796968 50.4787 1.39066 50.4798 2.01877V13.6646L14.3599 89.8936C14.0672 90.5163 14.1124 91.2455 14.4805 91.8274C14.8474 92.4093 15.4878 92.7642 16.1755 92.7674H50.4798V100.834H6.08599C5.38645 100.834 4.73641 101.195 4.36943 101.79C4.00136 102.385 3.968 103.127 4.2801 103.753L12.3517 119.886C12.5196 120.221 12.7768 120.503 13.0964 120.7C13.415 120.897 13.7831 121.001 14.1576 121.001H90.8378C91.2123 121.001 91.5793 120.897 91.899 120.7C92.2175 120.503 92.4747 120.221 92.6426 119.887L92.6416 119.885ZM54.5156 12.2782L85.813 88.7363H54.5156V12.2782ZM50.4798 23.0894V88.7363H19.3643L50.4798 23.0894ZM15.4049 116.969L9.35122 104.869H95.6453L89.5916 116.969H15.4049Z" fill="white"/>
<path d="M86.802 108.904H70.6588C69.9377 108.904 69.2716 109.288 68.911 109.912C68.5505 110.536 68.5505 111.305 68.911 111.929C69.2716 112.553 69.9377 112.938 70.6588 112.938H86.802C87.5231 112.938 88.1892 112.554 88.5498 111.929C88.9103 111.305 88.9103 110.536 88.5498 109.912C88.1892 109.289 87.5231 108.904 86.802 108.904Z" fill="white"/>
<path d="M62.5872 108.904H58.5514C57.8303 108.904 57.1642 109.288 56.8036 109.912C56.4431 110.536 56.4431 111.305 56.8036 111.929C57.1642 112.553 57.8303 112.938 58.5514 112.938H62.5872C63.3083 112.938 63.9744 112.554 64.335 111.929C64.6955 111.305 64.6955 110.536 64.335 109.912C63.9744 109.289 63.3083 108.904 62.5872 108.904Z" fill="white"/>
<path d="M38.3724 78.6544H46.444V82.6876H38.3724V78.6544Z" fill="white"/>
<path d="M38.3724 70.5879H46.444V74.6211H38.3724V70.5879Z" fill="white"/>
<path d="M8.1039 28.239C10.0884 28.2422 12.0041 27.5087 13.4774 26.1805C15.4652 27.5249 17.8113 28.2422 20.2113 28.239C23.1892 28.2465 26.0648 27.157 28.2904 25.1781C30.516 23.1991 31.9323 20.4716 32.2703 17.5149C32.6093 14.5583 31.8452 11.5802 30.1254 9.15057C28.4056 6.72095 25.8496 5.00979 22.947 4.34512C20.0445 3.68044 16.9988 4.10742 14.3911 5.5454C11.7845 6.98338 9.79893 9.33126 8.8142 12.1405C6.6155 11.9373 4.42971 12.6439 2.76588 14.0937C1.10205 15.5446 0.105479 17.6128 0.00754361 19.8176C-0.0903918 22.0225 0.721073 24.1703 2.25037 25.7621C3.77967 27.3539 5.89551 28.2487 8.1039 28.2401V28.239ZM9.55141 16.4233C10.1196 16.6438 10.7578 16.5964 11.2863 16.2931C11.8158 15.9898 12.1784 15.4639 12.2753 14.8616C12.6638 12.4729 14.107 10.3863 16.2056 9.17853C18.3043 7.97072 20.8344 7.77067 23.0966 8.63324C25.3588 9.49581 27.1131 11.3296 27.8739 13.6269C28.6348 15.9242 28.3206 18.442 27.0194 20.4823C25.7183 22.5226 23.568 23.8702 21.1627 24.1509C18.7573 24.4327 16.3542 23.6175 14.6161 21.9321C14.2405 21.5708 13.739 21.3686 13.217 21.3675C13.1363 21.3675 13.0556 21.3718 12.9748 21.3815C12.3711 21.4535 11.8319 21.7945 11.508 22.3086C10.9656 23.1808 10.11 23.8132 9.11662 24.0767C8.12327 24.3402 7.0675 24.2155 6.16241 23.7272C5.25839 23.2389 4.57392 22.4247 4.24998 21.4503C3.92604 20.4759 3.98631 19.4143 4.41787 18.4829C4.84943 17.5515 5.62107 16.8191 6.5746 16.4362C7.52812 16.0533 8.59142 16.0479 9.54925 16.4222L9.55141 16.4233Z" fill="white"/>
<path d="M98.3337 26.2224C96.221 26.188 94.1472 26.7849 92.3768 27.9379C90.6064 29.0898 89.2214 30.745 88.4002 32.6906C86.4931 32.4766 84.5829 33.0692 83.1321 34.3244C81.6814 35.5795 80.8204 37.3832 80.758 39.2998C80.6956 41.2163 81.4382 43.0727 82.805 44.4182C84.1718 45.7647 86.039 46.4789 87.9568 46.3886C89.6368 46.3929 91.2672 45.8228 92.5802 44.7753C94.3129 45.8325 96.3039 46.3907 98.3347 46.3886C101.086 46.4595 103.752 45.4389 105.752 43.5481C107.751 41.6584 108.919 39.0535 109.001 36.3055C108.919 33.5564 107.751 30.9526 105.752 29.0629C103.752 27.1732 101.086 26.1514 98.3347 26.2224H98.3337ZM98.3337 42.3553C96.6225 42.365 94.9694 41.7412 93.693 40.6033C93.3217 40.2688 92.8407 40.0849 92.3413 40.0849C92.2595 40.0849 92.1777 40.0903 92.097 40.101C91.5169 40.1709 90.996 40.4904 90.6689 40.9744C90.0522 41.8584 89.0352 42.3768 87.9568 42.3553C87.1626 42.3941 86.3866 42.1209 85.7936 41.5928C85.2006 41.0647 84.839 40.3247 84.7873 39.5321C84.8767 38.5329 85.4385 37.6381 86.2984 37.1218C87.1593 36.6066 88.214 36.5346 89.1374 36.9261C89.6992 37.1304 90.3234 37.0745 90.84 36.7733C91.3566 36.4733 91.7139 35.9592 91.8139 35.3698C92.3122 33.3037 93.764 31.599 95.7249 30.7762C97.6858 29.9545 99.92 30.1126 101.744 31.2043C103.568 32.2959 104.764 34.1899 104.964 36.3055C104.882 37.9844 104.14 39.5633 102.897 40.6969C101.654 41.8305 100.014 42.4274 98.3326 42.3553H98.3337Z" fill="white"/>
</g>
<defs>
<clipPath id="clip0_28_14">
<rect width="109" height="121" fill="white"/>
</clipPath>
</defs>
</svg>
